<?xml version="1.0" encoding="UTF-8" standalone="no"?>
<svg
   xmlns:dc="http://purl.org/dc/elements/1.1/"
   xmlns:cc="http://creativecommons.org/ns#"
   xmlns:rdf="http://www.w3.org/1999/02/22-rdf-syntax-ns#"
   xmlns:svg="http://www.w3.org/2000/svg"
   xmlns="http://www.w3.org/2000/svg"
   xmlns:xlink="http://www.w3.org/1999/xlink"
   xmlns:sodipodi="http://sodipodi.sourceforge.net/DTD/sodipodi-0.dtd"
   xmlns:inkscape="http://www.inkscape.org/namespaces/inkscape"
   width="128px"
   height="130px"
   viewBox="0 0 128 130"
   version="1.1"
   id="svg985"
   sodipodi:docname="adpin.svg"
   inkscape:version="0.92.3 (2405546, 2018-03-11)">
  <metadata
     id="metadata989">
    <rdf:RDF>
      <cc:Work
         rdf:about="">
        <dc:format>image/svg+xml</dc:format>
        <dc:type
           rdf:resource="http://purl.org/dc/dcmitype/StillImage" />
        <dc:title>Donut pin</dc:title>
      </cc:Work>
    </rdf:RDF>
  </metadata>
  <sodipodi:namedview
     pagecolor="#ffffff"
     bordercolor="#666666"
     borderopacity="1"
     objecttolerance="10"
     gridtolerance="10"
     guidetolerance="10"
     inkscape:pageopacity="0"
     inkscape:pageshadow="2"
     inkscape:window-width="1920"
     inkscape:window-height="1017"
     id="namedview987"
     showgrid="false"
     inkscape:zoom="1.4142136"
     inkscape:cx="62.927527"
     inkscape:cy="123.01632"
     inkscape:window-x="-8"
     inkscape:window-y="1072"
     inkscape:window-maximized="1"
     inkscape:current-layer="svg985" />
  <!-- Generator: Sketch 48.2 (47327) - http://www.bohemiancoding.com/sketch -->
  <title
     id="title903">Donut pin</title>
  <desc
     id="desc905">Created with Sketch.</desc>
  <defs
     id="defs929">
    <filter
       x="-23.1%"
       y="-21.5%"
       width="138.5%"
       height="143.0%"
       filterUnits="objectBoundingBox"
       id="filter-1">
      <feOffset
         dx="-4"
         dy="-3"
         in="SourceAlpha"
         result="shadowOffsetOuter1"
         id="feOffset907" />
      <feGaussianBlur
         stdDeviation="6"
         in="shadowOffsetOuter1"
         result="shadowBlurOuter1"
         id="feGaussianBlur909" />
      <feColorMatrix
         values="0 0 0 0 0   0 0 0 0 0   0 0 0 0 0  0 0 0 0.31 0"
         type="matrix"
         in="shadowBlurOuter1"
         result="shadowMatrixOuter1"
         id="feColorMatrix911" />
      <feMerge
         id="feMerge917">
        <feMergeNode
           in="shadowMatrixOuter1"
           id="feMergeNode913" />
        <feMergeNode
           in="SourceGraphic"
           id="feMergeNode915" />
      </feMerge>
    </filter>
    <filter
       x="-10.7%"
       y="-44.7%"
       width="121.5%"
       height="189.4%"
       filterUnits="objectBoundingBox"
       id="filter-2">
      <feGaussianBlur
         stdDeviation="1.78797105"
         in="SourceGraphic"
         id="feGaussianBlur920" />
    </filter>
    <filter
       x="0.0%"
       y="0.0%"
       width="100.0%"
       height="100.0%"
       filterUnits="objectBoundingBox"
       id="filter-3">
      <feGaussianBlur
         stdDeviation="0"
         in="SourceGraphic"
         id="feGaussianBlur923" />
    </filter>
    <path
       d="M14,0 C6.1138421,0 0,5.49175163 0,13 L0,70 C0,77.6226917 6.1138421,84.5231627 14,85 L40,85 L52,101 L65,85 L91,85 C98.1899947,84.5231627 103.681746,77.6226917 104,70 L104,13 C103.681746,5.49175163 98.1899947,0 91,0 L14,0 Z"
       id="path-4" />
    <path
       d="M0.29842,21.6784615 C0.29842,33.2157692 9.804,42.5683077 21.5301,42.5683077 C33.2562,42.5683077 42.76178,33.2157692 42.76178,21.6784615 C42.76178,10.1403077 33.2562,0.787769231 21.5301,0.787769231 C9.804,0.787769231 0.29842,10.1403077 0.29842,21.6784615 M16.59886,21.6784615 C16.59886,18.9986923 18.80648,16.8257692 21.5301,16.8257692 C24.25372,16.8257692 26.46134,18.9986923 26.46134,21.6784615 C26.46134,24.3582308 24.25372,26.5303077 21.5301,26.5303077 C18.80648,26.5303077 16.59886,24.3582308 16.59886,21.6784615"
       id="path-5" />
    <path
       d="M0.29842,21.6784615 C0.29842,33.2157692 9.804,42.5683077 21.5301,42.5683077 C33.2562,42.5683077 42.76178,33.2157692 42.76178,21.6784615 C42.76178,10.1403077 33.2562,0.787769231 21.5301,0.787769231 C9.804,0.787769231 0.29842,10.1403077 0.29842,21.6784615 Z M16.59886,21.6784615 C16.59886,18.9986923 18.80648,16.8257692 21.5301,16.8257692 C24.25372,16.8257692 26.46134,18.9986923 26.46134,21.6784615 C26.46134,24.3582308 24.25372,26.5303077 21.5301,26.5303077 C18.80648,26.5303077 16.59886,24.3582308 16.59886,21.6784615 Z"
       id="path-7" />
  </defs>
  <g
     id="shadows"
     transform="translate(43,110)"
     style="fill:#000000;fill-rule:evenodd;stroke:none;stroke-width:1;filter:url(#filter-1)">
    <ellipse
       id="Oval-13-Copy"
       cx="25"
       cy="6"
       rx="25"
       ry="6"
       style="fill-opacity:0.12999998;filter:url(#filter-2)" />
    <ellipse
       id="Oval-13"
       style="opacity:0.76999996;mix-blend-mode:multiply;fill-opacity:0.26984265;filter:url(#filter-3)"
       cx="25"
       cy="4.5"
       rx="10"
       ry="2.5" />
  </g>
  <g
     style="fill:none;fill-rule:evenodd;stroke:none;stroke-width:1;filter:url(#filter-1)"
     id="Fill-1"
     transform="translate(16,15)">
    <use
       xlink:href="#path-4"
       id="use934"
       style="fill:#ffffff;fill-rule:evenodd"
       x="0"
       y="0"
       width="100%"
       height="100%" />
    <path
       d="M 52.047301,98.563068 64.286044,83.5 H 65 l 25.900739,0.0033 C 97.099049,83.092219 102.20453,77.045603 102.5,70 l 0.001,-56.936476 C 102.21655,6.3446195 97.371931,1.5 91,1.5 H 14 C 6.8452413,1.5 1.5,6.4141717 1.5,13 v 57 c 0,6.959175 5.6228044,13.08143 12.5,13.5 h 26.75 z"
       id="path936"
       inkscape:connector-curvature="0"
       style="stroke:#58676b;stroke-width:3" />
  </g>
  <image
     sodipodi:absref="https://ads-resources-legacy.waze.com/resources/images/1.0/3x/mPqON3mp1XgRbjVtjp4T-g.png"
     y="20.288509"
     x="23.0005"
     id="image1133"
     xlink:href="https://ads-resources-legacy.waze.com/resources/images/1.0/3x/mPqON3mp1XgRbjVtjp4Tg.png"
     preserveAspectRatio="none"
     height="72"
     width="90" />
</svg>
