<?xml version="1.0" encoding="UTF-8"?>
<svg version="1.1" viewBox="0 0 128 130" xmlns="http://www.w3.org/2000/svg" xmlns:cc="http://creativecommons.org/ns#" xmlns:dc="http://purl.org/dc/elements/1.1/" xmlns:rdf="http://www.w3.org/1999/02/22-rdf-syntax-ns#" xmlns:xlink="http://www.w3.org/1999/xlink">
<metadata>
<rdf:RDF>
<cc:Work rdf:about="">
<dc:format>image/svg+xml</dc:format>
<dc:type rdf:resource="http://purl.org/dc/dcmitype/StillImage"/>
<dc:title>adpin</dc:title>
</cc:Work>
</rdf:RDF>
</metadata>
<title>adpin</title>
<desc>Created with Sketch.</desc>
<defs>
<filter id="a" x="-23.1%" y="-21.5%" width="138.5%" height="143%">
<feOffset dx="-4" dy="-3" in="SourceAlpha" result="shadowOffsetOuter1"/>
<feGaussianBlur in="shadowOffsetOuter1" result="shadowBlurOuter1" stdDeviation="6"/>
<feColorMatrix in="shadowBlurOuter1" result="shadowMatrixOuter1" values="0 0 0 0 0   0 0 0 0 0   0 0 0 0 0  0 0 0 0.31 0"/>
<feMerge>
<feMergeNode in="shadowMatrixOuter1"/>
<feMergeNode in="SourceGraphic"/>
</feMerge>
</filter>
<filter id="d" x="-10.7%" y="-44.7%" width="121.5%" height="189.4%">
<feGaussianBlur in="SourceGraphic" stdDeviation="1.78797105"/>
</filter>
<filter id="c" x="0%" y="0%" width="100%" height="100%">
<feGaussianBlur in="SourceGraphic"/>
</filter>
<path id="b" d="m14 0c-7.8862 0-14 5.4918-14 13v57c0 7.6227 6.1138 14.523 14 15h26l12 16 13-16h26c7.19-0.47684 12.682-7.3773 13-15v-57c-0.31825-7.5082-5.81-13-13-13h-77z"/>
</defs>
<g transform="translate(43,110)" fill-rule="evenodd" filter="url(#a)">
<ellipse cx="25" cy="6" rx="25" ry="6" fill-opacity=".13" filter="url(#d)"/>
<ellipse cx="25" cy="4.5" rx="10" ry="2.5" fill-opacity=".26984" filter="url(#c)" opacity=".77" style="mix-blend-mode:multiply"/>
</g>
<g transform="translate(16,15)" fill="none" fill-rule="evenodd" filter="url(#a)">
<use width="100%" height="100%" fill="#ffffff" fill-rule="evenodd" xlink:href="#b"/>
<path d="m52.047 98.563 12.239-15.063h0.71396l25.901 0.0033c6.1983-0.41108 11.304-6.4577 11.599-13.503l1e-3 -56.936c-0.28445-6.7189-5.1291-11.564-11.501-11.564h-77c-7.1548 0-12.5 4.9142-12.5 11.5v57c0 6.9592 5.6228 13.081 12.5 13.5h26.75z" stroke="#58676b" stroke-width="3"/>
</g>
</svg>
