<?xml version="1.0" encoding="UTF-8" standalone="no"?>
<svg
   xmlns:dc="http://purl.org/dc/elements/1.1/"
   xmlns:cc="http://creativecommons.org/ns#"
   xmlns:rdf="http://www.w3.org/1999/02/22-rdf-syntax-ns#"
   xmlns:svg="http://www.w3.org/2000/svg"
   xmlns="http://www.w3.org/2000/svg"
   xmlns:sodipodi="http://sodipodi.sourceforge.net/DTD/sodipodi-0.dtd"
   xmlns:inkscape="http://www.inkscape.org/namespaces/inkscape"
   width="1600"
   height="1700"
   version="1.1"
   id="svg1585"
   sodipodi:docname="broken_link.svg"
   inkscape:version="0.92.3 (2405546, 2018-03-11)">
  <metadata
     id="metadata1591">
    <rdf:RDF>
      <cc:Work
         rdf:about="">
        <dc:format>image/svg+xml</dc:format>
        <dc:type
           rdf:resource="http://purl.org/dc/dcmitype/StillImage" />
        <dc:title></dc:title>
      </cc:Work>
    </rdf:RDF>
  </metadata>
  <defs
     id="defs1589" />
  <sodipodi:namedview
     pagecolor="#ffffff"
     bordercolor="#666666"
     borderopacity="1"
     objecttolerance="10"
     gridtolerance="10"
     guidetolerance="10"
     inkscape:pageopacity="0"
     inkscape:pageshadow="2"
     inkscape:window-width="1920"
     inkscape:window-height="1017"
     id="namedview1587"
     showgrid="false"
     inkscape:zoom="0.39265224"
     inkscape:cx="837.2384"
     inkscape:cy="659.93408"
     inkscape:window-x="-8"
     inkscape:window-y="1072"
     inkscape:window-maximized="1"
     inkscape:current-layer="svg1585" />
  <path
     style="fill:#e50915;stroke:none"
     d="m 886,608 c 83.142,-83.424 0,0 83.142,-83.424 2.843,-6.095 1.714,-14.956 3.299,-21.576 3.109,-12.992 8.385,-24.938 15.903,-36 9.588,-14.108 22.606,-25.463 34.536,-37.51 22.82,-23.031 46.55,-45.171 69.08,-68.486 21.97,-22.741 43.98,-45.57 67.08,-67.178 12.18,-11.392 23,-23.412 37.96,-31.337 25.6,-13.566 57.24,-14.843 84,-4.036 44.13,17.822 76.3,67.777 65.88,115.547 -2.05,9.404 -4.4,18.373 -8.83,27 -8.99,17.499 -22.33,30.22 -36.05,44 -14.63,14.7 -29.26,29.407 -43.93,44.075 l -80,80 c -14.4,14.404 -28.23,30.799 -45.07,42.416 -12.12,8.361 -25.69,13.399 -40,16.621 -5.64,1.269 -12.78,0.282 -18,2.915 -83,82.973 0,0 -83,82.973 62.82,24.711 134.83,23.043 193,-13.862 24.4,-15.479 44.25,-36.435 64.42,-56.853 21.21,-21.461 42.8,-42.54 64,-64 18.84,-19.06 37.81,-38.027 56.86,-56.861 18.08,-17.861 36.09,-35.455 49.27,-57.424 48.55,-80.902 37.72,-187.657 -29.59,-254.964 -66.71,-66.717 -173.29,-78.419 -253.96,-30.584 -21.75,12.895 -39.27,30.821 -57,48.548 l -60,60 -67,67 c -15.643,15.643 -32.174,30.819 -44.964,49 -29.761,42.308 -43.445,95.583 -36.747,147 2.576,19.771 8.537,38.503 15.711,57 z"
     id="path1527"
     inkscape:connector-curvature="0"
     sodipodi:nodetypes="cccccccccccccccccccccccccccsccc" />
  <path
     style="fill:#333333; stroke:none;"
     d="M1384 205L1385 206L1384 205M1394 215L1395 216L1394 215M1449 341L1449 344C1449.7 342.446 1449.7 342.554 1449 341M894 424L895 425L894 424z"
     id="path1529" />
  <path
     style="fill:#e50915;stroke:none"
     d="m 624,440 -46,4 36,396 291,-48 -55,230 260.89,88.47 16.04,-43.82 L 907.893,988.775 968,734 656,784 Z"
     id="path1531"
     inkscape:connector-curvature="0"
     sodipodi:nodetypes="ccccccccccc" />
  <path
     style="fill:#333333; stroke:none;"
     d="M1408 480L1409 481L1408 480z"
     id="path1533" />
  <path
     style="fill:#e50915;stroke:none"
     d="m 833,696 c 60.06527,-11.76369 170.82,-28.279 170.82,-28.279 0,0 0,0 64.18,-63.682 23.23,-22.214 56,-46.553 44.79,-83.039 -1.5,-4.907 -3.61,-9.793 -6.57,-14 -15.23,-21.601 -46.49,-29.127 -69.22,-14.616 -8.24,5.264 -15.13,12.745 -22,19.616 z"
     id="path1535"
     inkscape:connector-curvature="0"
     sodipodi:nodetypes="cccccccc" />
  <path
     style="fill:#333333; stroke:none;"
     d="M634 541L634 544C634.696 542.447 634.696 542.554 634 541z"
     id="path1537" />
  <path
     style="fill:#e50915;stroke:none"
     d="m 714,992 c -82.973,83 0,0 -82.973,83 -2.933,5.81 -2.321,14.61 -3.628,21 -2.472,12.09 -7.385,24.85 -14.438,35 -11.957,17.21 -28.138,31.33 -42.886,46.07 l -80,80 L 444,1303 c -11.859,11.85 -23.157,24.26 -38,32.49 -20.072,11.12 -43.303,15.65 -66,12.07 -49.972,-7.88 -91.183,-56.82 -88.961,-107.56 0.671,-15.32 5.222,-30.44 12.219,-44 7.707,-14.94 19.969,-25.99 31.457,-37.93 19.685,-20.45 39.768,-40.54 60.274,-60.16 25.685,-24.57 49.802,-50.72 75.128,-75.65 11.899,-11.72 22.982,-24.469 36.883,-33.916 10.976,-7.459 23.077,-12.788 36,-15.841 6.677,-1.577 15.939,-0.498 22,-3.531 83,-82.972 0,0 83,-82.972 -19.749,-7.618 -39.844,-13.714 -61,-15.831 -50.677,-5.071 -101.184,7.452 -143,36.867 -18.938,13.322 -34.704,30.668 -51,46.964 l -70,70 -55,55 c -17.48,17.48 -34.967,34.75 -47.938,56 -45.133,73.94 -39.493,175.97 18.097,242 17.034,19.53 36.999,36.31 59.841,48.69 62.289,33.77 140.734,31.95 202,-3.12 23.287,-13.33 41.965,-31.85 60.665,-50.77 16.391,-16.58 33.033,-32.99 49.62,-49.38 24.146,-23.86 47.85,-48.13 72,-72 19.785,-19.55 40.853,-38.88 56.017,-62.42 23.708,-36.81 34.566,-81.45 32.659,-125 -1.093,-24.95 -9.341,-47.62 -16.961,-71 m 88,-123 -172,29.089 c -90.17,89.741 0,0 -90.17,89.741 -25.006,25.01 -66.754,53.18 -51.775,94.17 1.89,5.17 4.529,9.74 8.039,13.99 17.564,21.24 48.823,25.34 70.906,8.51 C 802,869 802,869 802,869 Z"
     id="path1551"
     inkscape:connector-curvature="0"
     sodipodi:nodetypes="ccccccccccccccccccccscssccsccccccccccccc" />
</svg>
