<?xml version="1.0" encoding="UTF-8" standalone="no"?>
<svg
   width="92"
   height="92"
   viewBox="0 0 92 92"
   version="1.1"
   id="svg27"
   sodipodi:docname="opis.svg"
   inkscape:version="1.1 (c68e22c387, 2021-05-23)"
   xmlns:inkscape="http://www.inkscape.org/namespaces/inkscape"
   xmlns:sodipodi="http://sodipodi.sourceforge.net/DTD/sodipodi-0.dtd"
   xmlns="http://www.w3.org/2000/svg"
   xmlns:svg="http://www.w3.org/2000/svg">
  <sodipodi:namedview
     id="namedview29"
     pagecolor="#ffffff"
     bordercolor="#666666"
     borderopacity="1.0"
     inkscape:pageshadow="2"
     inkscape:pageopacity="0.0"
     inkscape:pagecheckerboard="false"
     showgrid="false"
     inkscape:zoom="4.300813"
     inkscape:cx="122.88374"
     inkscape:cy="45.92155"
     inkscape:window-width="2560"
     inkscape:window-height="1017"
     inkscape:window-x="-3"
     inkscape:window-y="1072"
     inkscape:window-maximized="1"
     inkscape:current-layer="svg27" />
  <!-- Generator: Sketch 45.2 (43514) - http://www.bohemiancoding.com/sketch -->
  <desc
     id="desc2">Created with Sketch.</desc>
  <defs
     id="defs4" />
  <path
     d="M 11.92804,76.89763 50.150377,24.347924 c -0.0051,0.01853 -0.01022,0.03897 -0.01533,0.05814 -0.182723,0.624208 -0.325196,1.265665 -0.421668,1.922457 L 14.59158,79.598908 C 13.667742,78.735112 12.778405,77.834899 11.92804,76.89763 Z M 5.1238434,67.104537 52.086858,20.322201 c -0.517503,0.745599 -0.964727,1.54231 -1.332729,2.381828 L 6.9619349,70.327798 c -0.6542251,-1.046521 -1.2682,-2.121794 -1.8380915,-3.223261 z m 72.1672926,-34.563331 8.94704,-8.849435 c 0.539225,0.971132 1.044588,1.962708 1.514173,2.974729 l -11.09116,7.540324 c 0.242779,-0.539234 0.45553,-1.09444 0.629947,-1.665618 z m -5.25744,7.339708 c 0.212751,-0.153336 0.420391,-0.311784 0.624197,-0.476621 l 19.341809,6.340466 c 0,0.176337 0.0096,1.789565 -0.07986,2.988145 z m 3.368237,-3.441766 15.075929,-2.222102 c 0.258751,0.979437 0.484918,1.971014 0.67978,2.974729 l -16.374795,0.07667 C 74.999432,37.000106 75.205794,36.7241 75.401933,36.43915 Z M 45.799524,0 h 0.302196 c 1.327617,0.00447232 2.683345,0.07027924 3.68385,0.15525323 L 68.92996,13.634173 57.222908,1.3800287 c 1.615118,0.4044251 3.197014,0.8938242 4.739938,1.4643639 L 73.513369,16.252394 69.048794,6.1813788 c 1.280978,0.7430432 2.522345,1.5461433 3.721544,2.4048279 l 5.254885,15.2978743 1.092505,-9.809704 c 0.856115,0.887435 1.677091,1.808093 2.459733,2.761974 l -3.864656,13.900595 c 0.127139,-0.76221 0.196778,-1.544227 0.196778,-2.342855 0,-7.828468 -6.34675,-14.174045 -14.173813,-14.174045 -4.431353,0 -8.386092,2.034904 -10.985104,5.219192 L 1.8757179,59.014757 C 1.5358275,57.858983 1.2387428,56.685959 0.98893619,55.495045 L 52.930834,18.30902 0.02804303,47.393126 c -0.05047245,-1.222859 -0.0306668,-2.730668 0.04216685,-3.847469 L 54.456507,16.631902 1.1844371,35.604103 C 1.4687439,34.372938 1.8054398,33.16158 2.1868582,31.970027 L 56.179598,15.184789 5.5167618,24.147947 C 6.2048482,22.876532 6.9517127,21.642173 7.752244,20.446148 l 50.150445,-6.260602 -45.416257,0.313062 c 1.031171,-1.096357 2.11537,-2.142878 3.248125,-3.135093 L 59.763142,13.392668 22.094724,6.6944172 C 23.356535,5.925179 24.657958,5.2153586 25.995797,4.5681507 L 62.184541,12.918603 33.376274,1.7550643 c 1.420257,-0.4044251 2.869263,-0.7417654 4.34127,-1.00946543 L 65.053165,12.789544 44.949159,0.01277804 C 45.227077,0.00511122 45.512023,6.389022e-4 45.799524,0 Z M 21.137026,84.703098 49.563874,28.45926 c 0.0026,0.546261 0.03897,1.084855 0.100945,1.614505 L 24.113622,86.465829 C 23.097784,85.915096 22.105585,85.326667 21.137026,84.703098 Z M 65.001415,42.50808 c 0.245973,-0.02172 0.489391,-0.04919 0.731531,-0.0837 l 20.592758,25.72604 c -0.557752,1.013938 -1.153838,2.004236 -1.784424,2.968978 z m 3.695989,-0.835684 c 0.225528,-0.08433 0.449141,-0.175059 0.669558,-0.270256 l 21.229733,15.922082 c -0.26514,1.046522 -0.566697,2.078988 -0.902115,3.095481 z M 77.242581,79.761189 61.227482,42.341327 c 0.291973,0.05239 0.587141,0.09647 0.884865,0.130336 l 17.526716,34.901949 c -0.769225,0.824184 -1.568479,1.621534 -2.396482,2.387577 z M 43.898821,91.948888 51.80894,36.046862 c 0.208278,0.323923 0.427418,0.639541 0.660614,0.944298 L 47.449143,91.974444 C 47.184641,91.990416 46.753389,91.998722 46.257609,92 H 46.056998 C 45.343994,91.9987 44.531324,91.98275 43.898821,91.94889 Z M 67.21773,86.822337 57.612632,41.179802 c 0.263223,0.125864 0.531558,0.241505 0.803087,0.351397 l 11.919803,43.5086 c -1.013921,0.633791 -2.053398,1.229248 -3.117792,1.782538 z M 32.039074,89.838594 50.156766,32.459426 c 0.129695,0.431259 0.279195,0.854213 0.446585,1.266943 L 35.47695,90.787364 c -1.163421,-0.272812 -2.309593,-0.590346 -3.437876,-0.94877 z m 23.861967,1.089328 -1.536534,-51.905053 c 0.25364,0.224254 0.515585,0.440203 0.785197,0.64593 l 4.314436,50.326965 c -1.168533,0.357146 -2.35751,0.667653 -3.563099,0.932158 z"
     id="Combined-Shape"
     fill="#FFFFFF"
     style="fill:#000000;fill-rule:evenodd;stroke:none;stroke-width:1" />
  <g
     id="Group-22"
     transform="translate(61,42)"
     style="fill:#000000;fill-rule:evenodd;stroke:none;stroke-width:1" />
</svg>
